<?xml version="1.0" standalone="no"?>
<!DOCTYPE svg PUBLIC "-//W3C//DTD SVG 20010904//EN" "http://www.w3.org/TR/2001/REC-SVG-20010904/DTD/svg10.dtd">
<svg version="1.0" xmlns="http://www.w3.org/2000/svg" width="2159.000000pt" height="803.000000pt"
    viewBox="0 0 2159.000000 803.000000" preserveAspectRatio="xMidYMid meet">

    <g transform="translate(0.000000,803.000000) scale(0.100000,-0.100000)" stroke="none">
        <path d="M12295 7734 c-354 -61 -543 -149 -735 -343 -117 -118 -173 -206 -221
-344 -41 -119 -52 -211 -46 -367 6 -152 22 -216 88 -338 165 -309 459 -492
1040 -647 96 -25 242 -64 324 -86 188 -51 288 -89 364 -140 107 -72 156 -166
149 -287 -8 -152 -111 -263 -293 -318 -44 -13 -91 -18 -175 -18 -193 2 -335
58 -446 177 -81 87 -124 187 -168 390 -6 25 -9 27 -44 22 -20 -3 -219 -17
-442 -30 -483 -29 -516 -33 -531 -52 -10 -11 -9 -34 4 -106 73 -415 303 -755
616 -912 262 -131 705 -199 1132 -175 541 31 881 171 1140 468 35 39 67 72 71
72 4 0 8 -11 8 -24 0 -39 56 -247 96 -353 179 -482 580 -866 1080 -1033 136
-45 337 -88 455 -97 l80 -6 -44 -46 c-116 -122 -211 -259 -283 -408 -53 -109
-126 -325 -149 -437 -44 -220 -45 -742 0 -962 130 -641 531 -1089 1116 -1248
371 -101 918 -106 1279 -12 285 74 503 198 706 400 150 150 241 285 335 496
l24 55 3 -482 2 -483 1380 0 1380 0 0 425 c0 398 -1 425 -17 426 -10 1 -387 5
-838 8 l-820 6 -6 220 c-4 121 -7 712 -8 1313 l-1 1092 -535 0 -535 0 -1 -482
c0 -455 -1 -481 -17 -448 -63 135 -118 240 -154 293 -263 391 -625 601 -1182
685 l-48 7 93 64 c285 198 538 443 736 716 198 272 366 652 439 990 27 125 29
141 28 400 0 241 -2 281 -22 373 -78 357 -231 642 -476 888 -253 252 -542 404
-936 490 -114 25 -148 28 -379 32 -357 5 -538 -19 -832 -114 -462 -149 -831
-376 -1184 -729 -174 -173 -292 -318 -400 -490 -57 -91 -202 -373 -223 -432
-6 -18 -15 -33 -20 -33 -5 0 -22 24 -37 53 -132 244 -324 395 -680 532 -155
60 -306 104 -655 189 -407 100 -474 123 -534 182 -56 56 -69 126 -41 220 18
62 63 109 135 143 49 22 70 25 205 29 134 4 157 2 215 -18 165 -55 257 -157
311 -344 l23 -79 110 6 c385 22 799 47 844 52 48 6 52 8 52 33 0 39 -45 217
-73 293 -135 359 -368 553 -790 659 -152 38 -308 50 -642 49 -227 0 -278 -4
-400 -25z m4813 -265 c372 -41 762 -208 994 -427 78 -74 237 -267 311 -379 85
-128 157 -309 203 -511 22 -98 24 -128 24 -364 0 -216 -3 -273 -20 -361 -98
-509 -363 -986 -761 -1372 -141 -137 -247 -222 -412 -332 -358 -238 -790 -400
-1179 -442 -140 -16 -424 -13 -563 4 -705 88 -1242 528 -1440 1180 -55 183
-68 303 -62 565 6 237 17 314 72 505 120 414 393 867 660 1098 209 180 668
515 802 585 211 109 510 202 796 247 102 16 445 19 575 4z m220 -4700 c125
-32 197 -74 292 -169 126 -125 183 -248 216 -458 20 -130 23 -484 6 -618 -51
-388 -213 -611 -499 -685 -100 -25 -297 -28 -399 -4 -112 25 -229 89 -304 165
-165 167 -233 397 -233 795 0 403 65 639 218 797 102 105 248 179 393 199 79
11 222 1 310 -22z" />
        <path d="M16782 6620 c-243 -65 -528 -291 -620 -490 -23 -48 -26 -68 -26 -165
0 -102 2 -114 29 -170 37 -73 124 -164 187 -194 64 -30 154 -42 248 -31 100
11 168 29 365 95 88 30 183 57 211 61 49 6 53 5 92 -30 22 -20 45 -50 52 -66
27 -65 -20 -153 -115 -216 -44 -29 -66 -37 -119 -41 -74 -6 -123 12 -193 72
l-41 35 -134 -107 c-247 -197 -245 -190 -83 -297 93 -62 173 -86 287 -86 116
0 190 20 307 81 362 189 551 463 498 720 -40 197 -170 338 -346 375 -125 25
-256 -3 -585 -128 -171 -64 -202 -68 -244 -33 -44 37 -44 85 1 151 46 70 121
107 202 102 50 -3 69 -10 108 -37 l47 -34 82 63 c137 105 257 212 252 224 -10
23 -113 97 -177 126 -88 42 -182 48 -285 20z" />
        <path d="M15518 5767 c-110 -77 -186 -137 -183 -144 2 -7 100 -147 216 -310
344 -483 399 -571 399 -647 0 -32 -7 -46 -44 -82 -39 -40 -48 -44 -93 -44 -56
0 -95 23 -154 92 l-37 42 -83 -76 c-46 -42 -122 -112 -169 -156 l-84 -78 49
-54 c93 -99 206 -162 324 -181 229 -35 570 169 692 415 42 85 42 86 42 198 0
106 -2 118 -33 188 -56 128 -172 306 -488 753 -84 119 -157 217 -160 217 -4
-1 -91 -60 -194 -133z" />
        <path d="M250 5961 l0 -1741 540 0 540 0 0 705 0 705 83 0 c206 0 310 -73 445
-313 69 -122 351 -638 515 -943 l87 -161 436 -6 c451 -6 774 0 774 15 0 22
-483 960 -548 1063 -47 75 -172 232 -221 279 -67 62 -157 119 -241 152 -39 15
-70 30 -70 34 0 4 35 17 78 30 194 58 332 137 457 264 128 129 224 303 256
466 8 39 13 134 13 235 -1 140 -5 183 -22 247 -95 350 -308 564 -647 651 -190
49 -196 50 -1367 54 l-1108 4 0 -1740z m1805 1013 c39 -11 92 -32 118 -47 102
-60 154 -195 128 -335 -42 -232 -222 -302 -778 -302 l-193 0 0 356 0 356 328
-5 c280 -4 337 -7 397 -23z" />
        <path d="M1294 3599 c-263 -25 -526 -102 -691 -201 -30 -18 -98 -73 -151 -123
-221 -209 -297 -371 -309 -662 -7 -161 3 -228 48 -343 90 -226 271 -407 544
-543 167 -83 346 -141 743 -242 406 -103 545 -172 606 -298 90 -188 -12 -392
-234 -468 -55 -19 -87 -23 -210 -23 -133 0 -151 2 -219 27 -138 49 -253 151
-312 274 -18 37 -44 116 -58 175 -25 103 -27 108 -52 108 -66 0 -919 -58 -967
-66 -31 -5 -32 -6 -26 -47 48 -337 179 -614 389 -822 258 -255 720 -367 1386
-335 330 15 526 61 746 174 198 102 344 230 463 407 l58 87 83 -105 c184 -233
381 -371 658 -463 226 -76 401 -100 721 -100 350 0 504 21 724 97 347 120 588
345 765 714 60 124 131 318 131 357 0 12 -8 25 -17 31 -40 20 -873 271 -902
271 -14 0 -24 -23 -46 -97 -16 -54 -56 -152 -89 -217 -73 -147 -143 -224 -254
-280 -107 -54 -166 -66 -322 -66 -157 0 -219 13 -324 67 -241 126 -346 400
-346 906 0 441 60 648 240 827 133 134 257 183 460 183 277 0 489 -143 593
-401 17 -42 32 -79 33 -81 4 -5 809 174 921 205 29 8 26 23 -34 167 -158 379
-432 665 -758 791 -247 95 -505 132 -849 123 -433 -11 -722 -92 -1009 -281
-157 -103 -276 -219 -390 -380 l-49 -69 -44 93 c-58 123 -139 243 -206 306
-184 174 -470 285 -830 324 -110 11 -492 11 -614 -1z m368 -653 c176 -38 282
-141 349 -340 l27 -81 58 -3 c33 -2 179 4 327 12 147 9 303 16 346 16 l78 0
-23 -78 c-24 -85 -61 -287 -71 -394 -3 -37 -7 -68 -9 -68 -2 0 -43 23 -91 50
-182 105 -442 190 -983 324 -345 85 -398 103 -464 158 -154 127 -59 353 171
407 59 14 211 12 285 -3z" />
        <path d="M12049 3595 c-388 -53 -725 -211 -970 -455 -117 -117 -181 -201 -272
-365 l-62 -110 -3 443 -2 442 -540 0 -540 0 -2 -607 -3 -608 -587 -3 -588 -2
0 610 0 610 -540 0 -540 0 2 -1742 3 -1743 535 0 535 0 3 708 2 707 590 0 590
0 2 -708 3 -707 535 0 535 0 5 447 5 447 59 -108 c273 -502 680 -759 1316
-832 136 -16 477 -16 605 0 478 58 825 225 1077 515 206 238 326 513 383 876
26 164 32 559 10 735 -72 599 -357 1037 -827 1269 -196 96 -431 162 -667 186
-141 14 -534 11 -652 -5z m536 -822 c258 -58 444 -255 508 -539 55 -244 46
-696 -20 -924 -55 -193 -177 -352 -325 -424 -174 -85 -466 -92 -642 -16 -151
64 -282 206 -347 374 -61 158 -73 250 -73 546 0 204 4 287 17 362 37 209 96
337 208 448 176 173 407 233 674 173z" />
    </g>
</svg>